<?xml version="1.0" encoding="UTF-8" standalone="no"?>
<!-- Created with Inkscape (http://www.inkscape.org/) -->

<svg
   xmlns:dc="http://purl.org/dc/elements/1.1/"
   xmlns:cc="http://creativecommons.org/ns#"
   xmlns:rdf="http://www.w3.org/1999/02/22-rdf-syntax-ns#"
   xmlns:svg="http://www.w3.org/2000/svg"
   xmlns="http://www.w3.org/2000/svg"
   xmlns:xlink="http://www.w3.org/1999/xlink"
   xmlns:sodipodi="http://sodipodi.sourceforge.net/DTD/sodipodi-0.dtd"
   xmlns:inkscape="http://www.inkscape.org/namespaces/inkscape"
   id="svg3479"
   version="1.1"
   inkscape:version="0.91 r13725"
   width="80"
   height="86.25"
   viewBox="0 0 80 86.25"
   sodipodi:docname="Unbenannt.svg">
  <metadata
     id="metadata3485">
    <rdf:RDF>
      <cc:Work
         rdf:about="">
        <dc:format>image/svg+xml</dc:format>
        <dc:type
           rdf:resource="http://purl.org/dc/dcmitype/StillImage" />
        <dc:title></dc:title>
      </cc:Work>
    </rdf:RDF>
  </metadata>
  <defs
     id="defs3483" />
  <sodipodi:namedview
     pagecolor="#ffffff"
     bordercolor="#666666"
     borderopacity="1"
     objecttolerance="10"
     gridtolerance="10"
     guidetolerance="10"
     inkscape:pageopacity="0"
     inkscape:pageshadow="2"
     inkscape:window-width="640"
     inkscape:window-height="480"
     id="namedview3481"
     showgrid="false"
     inkscape:zoom="1.5652174"
     inkscape:cx="10.626256"
     inkscape:cy="25.231662"
     inkscape:window-x="650"
     inkscape:window-y="149"
     inkscape:window-maximized="0"
     inkscape:current-layer="svg3479" />
  <image
     sodipodi:absref="C:\Users\Anna\Dropbox\_Studium\6. Semester\Projekt\Grafiken\allgemein\Unbenannt.png"
     xlink:href="Unbenannt.png"
     y="0"
     x="0"
     id="image3487"
     preserveAspectRatio="none"
     height="86.25"
     width="80" />
  <g
     id="g3489">
    <path
       style="fill:#fefefe"
       d="M 0,43.125 0,0 13.75,0 27.5,0 l 0,1.875 0,1.875 -1.875,0 -1.875,0 0,1.875 0,1.875 -1.875,0 -1.875,0 0,4.375 0,4.375 -1.25,0 -1.25,0 0,-1.875 0,-1.875 -5.625,0 -5.625,0 0,1.875 0,1.875 -1.875,0 -1.875,0 0,7.5 0,7.5 1.875,0 1.875,0 0,1.875 0,1.875 1.875,0 1.875,0 0,1.875 0,1.875 1.875,0 1.875,0 0,4.375 0,4.375 -1.875,0 -1.875,0 0,5.625 0,5.625 1.875,0 1.875,0 0,1.875 0,1.875 3.75,0 3.75,0 0,10 0,10 1.875,0 1.875,0 0,1.875 0,1.875 -12.5,0 -12.5,0 0,-43.125 z m 32.5,41.25 0,-1.875 1.875,0 1.875,0 0,-6.25 0,-6.25 3.75,0 3.75,0 0,6.25 0,6.25 1.875,0 1.875,0 0,1.875 0,1.875 -7.5,0 -7.5,0 0,-1.875 z m 22.5,0 0,-1.875 1.875,0 1.875,0 0,-10 0,-10 3.75,0 3.75,0 0,-1.875 0,-1.875 1.875,0 1.875,0 0,-5.625 0,-5.625 -1.875,0 -1.875,0 0,-4.375 0,-4.375 1.875,0 1.875,0 0,-1.875 0,-1.875 1.875,0 1.875,0 0,-1.875 0,-1.875 1.875,0 1.875,0 0,-7.5 0,-7.5 -1.875,0 -1.875,0 0,-1.875 0,-1.875 -5.625,0 -5.625,0 0,1.875 0,1.875 -1.25,0 -1.25,0 0,-4.375 0,-4.375 -1.875,0 -1.875,0 0,-1.875 0,-1.875 -1.875,0 -1.875,0 0,-1.875 L 52.5,0 66.25,0 80,0 l 0,43.125 0,43.125 -12.5,0 -12.5,0 0,-1.875 z m -20,-26.25 0,-1.875 1.875,0 1.875,0 0,1.875 0,1.875 -1.875,0 -1.875,0 0,-1.875 z m 6.25,0 0,-1.875 1.875,0 1.875,0 0,1.875 0,1.875 -1.875,0 -1.875,0 0,-1.875 z M 32.5,13.75 l 0,-2.5 7.5,0 7.5,0 0,2.5 0,2.5 -7.5,0 -7.5,0 0,-2.5 z"
       id="path3503"
       inkscape:connector-curvature="0" />
    <path
       style="fill:#d09fac"
       d="m 36.703434,50.628649 -0.78539,-2.046693 1.283203,-1.283204 1.283203,-1.283202 2.320275,0.446844 2.320275,0.446843 0,2.482882 0,2.482881 -2.818089,0.400171 -2.818089,0.400172 -0.785388,-2.046694 z"
       id="path3501"
       inkscape:connector-curvature="0" />
    <path
       style="fill:#c2b069"
       d="m 28.75,72.5 0,-6.25 1.875,0 1.875,0 0,6.25 0,6.25 -1.875,0 -1.875,0 0,-6.25 z m 18.75,0 0,-6.25 1.875,0 1.875,0 0,6.25 0,6.25 -1.875,0 -1.875,0 0,-6.25 z m -15,-11.875 0,-1.875 -5.625,0 -5.625,0 0,-1.875 0,-1.875 -1.875,0 -1.875,0 0,-3.75 0,-3.75 1.875,0 1.875,0 0,-8.125 0,-8.125 1.875,0 1.875,0 0,-1.875 0,-1.875 1.875,0 1.875,0 0,-1.875 0,-1.875 11.25,0 11.25,0 0,1.875 0,1.875 1.875,0 1.875,0 0,1.875 0,1.875 1.875,0 1.875,0 0,8.125 0,8.125 1.875,0 1.875,0 0,3.75 0,3.75 -1.875,0 -1.875,0 0,1.875 0,1.875 -5.625,0 -5.625,0 0,1.875 0,1.875 -7.5,0 -7.5,0 0,-1.875 z m 6.25,-2.5 0,-1.875 1.25,0 1.25,0 0,1.875 0,1.875 1.5625,-0.0097 1.5625,-0.0098 1.444894,-3.115248 L 47.264787,53.75 40,53.75 l -7.264787,0 1.444893,3.115248 1.444894,3.115247 1.5625,0.0098 L 38.75,60 l 0,-1.875 z m 4.375,-8.732881 0,-2.482882 -2.320275,-0.446843 -2.320275,-0.446844 -1.283203,1.283202 -1.283203,1.283204 0.78539,2.046693 0.785389,2.046693 2.818088,-0.400171 L 43.125,51.875 l 0,-2.482881 z m -7.5,-8.142119 0,-3.125 -2.818089,-0.400171 -2.818089,-0.400172 -0.753147,1.962672 -0.753148,1.962671 0.753148,1.962671 0.753147,1.962671 2.818089,-0.400171 L 35.625,44.375 l 0,-3.125 z m 15.625,-0.625 0,-1.875 -3.75,0 -3.75,0 0,1.875 0,1.875 3.75,0 3.75,0 0,-1.875 z M 10,25.625 10,20 l 3.75,0 3.75,0 0,1.875 0,1.875 1.875,0 1.875,0 0,1.875 0,1.875 -1.875,0 -1.875,0 0,1.875 0,1.875 -3.75,0 -3.75,0 0,-5.625 z m 52.5,3.75 0,-1.875 -1.875,0 -1.875,0 0,-1.875 0,-1.875 1.875,0 1.875,0 0,-1.875 0,-1.875 3.75,0 3.75,0 0,5.625 0,5.625 -3.75,0 -3.75,0 0,-1.875 z"
       id="path3499"
       inkscape:connector-curvature="0" />
    <path
       style="fill:#818080"
       d="m 24.537857,17.1875 c -0.414546,-1.546875 -0.761401,-4.359375 -0.770788,-6.25 L 23.75,7.5 l 1.875,0 1.875,0 0,-1.875 0,-1.875 5.625,0 5.625,0 0,1.875 0,1.875 -3.125,0 -3.125,0 0,1.875 0,1.875 -1.875,0 -1.875,0 0,4.375 0,4.375 -1.729211,0 -1.72921,0 -0.753722,-2.8125 z"
       id="path3497"
       inkscape:connector-curvature="0" />
    <path
       style="fill:#8b7f4f"
       d="m 25,74.375 0,-8.125 1.875,0 1.875,0 0,6.25 0,6.25 1.875,0 1.875,0 0,1.875 0,1.875 -3.75,0 -3.75,0 0,-8.125 z m 22.5,6.25 0,-1.875 1.875,0 1.875,0 0,-6.25 0,-6.25 1.875,0 1.875,0 0,8.125 0,8.125 -3.75,0 -3.75,0 0,-1.875 z m -15,-16.25 0,-1.875 -5.625,0 -5.625,0 0,-1.875 0,-1.875 -3.75,0 -3.75,0 0,-5.625 0,-5.625 1.875,0 1.875,0 0,-8.125 0,-8.125 1.875,0 1.875,0 0,-1.875 0,-1.875 1.875,0 1.875,0 0,-1.875 0,-1.875 -3.75,0 -3.75,0 0,-1.875 0,-1.875 -3.75,0 -3.75,0 0,5.625 0,5.625 1.875,0 1.875,0 0,1.875 0,1.875 -1.875,0 -1.875,0 0,-1.875 0,-1.875 -1.875,0 -1.875,0 0,-7.5 0,-7.5 5.625,0 5.625,0 0,1.875 0,1.875 3.75,0 3.75,0 0,1.875 0,1.875 1.875,0 1.875,0 0,-1.875 0,-1.875 11.25,0 11.25,0 0,1.875 0,1.875 1.875,0 1.875,0 0,-1.875 0,-1.875 3.75,0 3.75,0 0,-1.875 0,-1.875 5.625,0 5.625,0 0,7.5 0,7.5 -1.875,0 -1.875,0 0,1.875 0,1.875 -1.875,0 -1.875,0 0,-1.875 0,-1.875 1.875,0 1.875,0 0,-5.625 0,-5.625 -3.75,0 -3.75,0 0,1.875 0,1.875 -3.75,0 -3.75,0 0,1.875 0,1.875 1.875,0 1.875,0 0,1.875 0,1.875 1.875,0 1.875,0 0,8.125 0,8.125 1.875,0 1.875,0 0,5.625 0,5.625 -3.75,0 -3.75,0 0,1.875 0,1.875 -5.625,0 -5.625,0 0,1.875 0,1.875 -7.5,0 -7.5,0 0,-1.875 z m 15,-3.75 0,-1.875 5.625,0 5.625,0 0,-1.875 0,-1.875 1.875,0 1.875,0 0,-3.75 0,-3.75 -1.875,0 -1.875,0 0,-8.125 0,-8.125 -1.875,0 -1.875,0 0,-1.875 0,-1.875 -1.875,0 -1.875,0 0,-1.875 0,-1.875 -11.25,0 -11.25,0 0,1.875 0,1.875 -1.875,0 -1.875,0 0,1.875 0,1.875 -1.875,0 -1.875,0 0,8.125 0,8.125 -1.875,0 -1.875,0 0,3.75 0,3.75 1.875,0 1.875,0 0,1.875 0,1.875 5.625,0 5.625,0 0,1.875 0,1.875 7.5,0 7.5,0 0,-1.875 z"
       id="path3495"
       inkscape:connector-curvature="0" />
    <path
       style="fill:#a30f0f"
       d="m 51.25,15.625 0,-4.375 -1.875,0 -1.875,0 0,-1.875 0,-1.875 -4.375,0 -4.375,0 0,-1.875 0,-1.875 6.875,0 6.875,0 0,1.875 0,1.875 1.875,0 1.875,0 -0.01707,3.4375 c -0.0094,1.890625 -0.356242,4.703125 -0.770789,6.25 L 54.708421,20 52.979211,20 51.25,20 l 0,-4.375 z"
       id="path3493"
       inkscape:connector-curvature="0" />
    <path
       style="fill:#000000"
       d="m 25,84.375 0,-1.875 -1.875,0 -1.875,0 0,-10 0,-10 -3.75,0 -3.75,0 0,-1.875 0,-1.875 -1.875,0 -1.875,0 0,-5.625 0,-5.625 1.875,0 1.875,0 0,-4.375 0,-4.375 -1.875,0 -1.875,0 0,-1.875 0,-1.875 -1.875,0 -1.875,0 0,-1.875 0,-1.875 -1.875,0 -1.875,0 0,-7.5 0,-7.5 1.875,0 1.875,0 0,-1.875 0,-1.875 5.625,0 5.625,0 0,1.875 0,1.875 -5.625,0 -5.625,0 0,7.5 0,7.5 1.875,0 1.875,0 0,1.875 0,1.875 1.875,0 1.875,0 0,-1.875 0,-1.875 1.875,0 1.875,0 0,-1.875 0,-1.875 1.875,0 1.875,0 0,-1.875 0,-1.875 1.875,0 1.875,0 0,-1.875 0,-1.875 -3.75,0 -3.75,0 0,-1.875 0,-1.875 1.25,0 1.25,0 0,-4.375 0,-4.375 1.875,0 1.875,0 0,-1.875 0,-1.875 1.875,0 1.875,0 0,-1.875 0,-1.875 12.5,0 12.5,0 0,1.875 0,1.875 1.875,0 1.875,0 0,1.875 0,1.875 1.875,0 1.875,0 0,4.375 0,4.375 1.25,0 1.25,0 0,1.875 0,1.875 -3.75,0 -3.75,0 0,1.875 0,1.875 1.875,0 1.875,0 0,1.875 0,1.875 1.875,0 1.875,0 0,1.875 0,1.875 1.875,0 1.875,0 0,1.875 0,1.875 1.875,0 1.875,0 0,-1.875 0,-1.875 1.875,0 1.875,0 0,-7.5 0,-7.5 -5.625,0 -5.625,0 0,-1.875 0,-1.875 5.625,0 5.625,0 0,1.875 0,1.875 1.875,0 1.875,0 0,7.5 0,7.5 -1.875,0 -1.875,0 0,1.875 0,1.875 -1.875,0 -1.875,0 0,1.875 0,1.875 -1.875,0 -1.875,0 0,4.375 0,4.375 1.875,0 1.875,0 0,5.625 0,5.625 -1.875,0 -1.875,0 0,1.875 0,1.875 -3.75,0 -3.75,0 0,10 0,10 -1.875,0 -1.875,0 0,1.875 0,1.875 -3.75,0 -3.75,0 0,-1.875 0,-1.875 -1.875,0 -1.875,0 0,-6.25 0,-6.25 -3.75,0 -3.75,0 0,6.25 0,6.25 -1.875,0 -1.875,0 0,1.875 0,1.875 -3.75,0 -3.75,0 0,-1.875 z m 7.5,-10 0,-8.125 -3.75,0 -3.75,0 0,8.125 0,8.125 3.75,0 3.75,0 0,-8.125 z m 22.5,0 0,-8.125 -3.75,0 -3.75,0 0,8.125 0,8.125 3.75,0 3.75,0 0,-8.125 z m -7.5,-10 0,-1.875 5.625,0 5.625,0 0,-1.875 0,-1.875 3.75,0 3.75,0 0,-5.625 0,-5.625 -1.875,0 -1.875,0 0,-8.125 0,-8.125 -1.875,0 -1.875,0 0,-1.875 0,-1.875 -1.875,0 -1.875,0 0,-1.875 0,-1.875 -1.875,0 -1.875,0 0,-1.875 0,-1.875 -11.25,0 -11.25,0 0,1.875 0,1.875 -1.875,0 -1.875,0 0,1.875 0,1.875 -1.875,0 -1.875,0 0,1.875 0,1.875 -1.875,0 -1.875,0 0,8.125 0,8.125 -1.875,0 -1.875,0 0,5.625 0,5.625 3.75,0 3.75,0 0,1.875 0,1.875 5.625,0 5.625,0 0,1.875 0,1.875 7.5,0 7.5,0 0,-1.875 z M 33.125,55 32.352457,53.75 40,53.75 l 7.647542,0 L 46.875,55 46.102457,56.25 40,56.25 33.897542,56.25 33.125,55 Z M 29.235675,43.212671 28.482527,41.25 l 0.753148,-1.962671 0.753147,-1.962672 2.818089,0.400172 2.818089,0.400171 0,3.125 0,3.125 -2.818089,0.400171 -2.818088,0.400172 -0.753148,-1.962672 z M 43.75,40.625 l 0,-1.875 3.75,0 3.75,0 0,1.875 0,1.875 -3.75,0 -3.75,0 0,-1.875 z m -15,-25 0,-4.375 1.875,0 1.875,0 0,-1.875 0,-1.875 7.5,0 7.5,0 0,1.875 0,1.875 1.875,0 1.875,0 0,4.375 0,4.375 1.729211,0 1.72921,0 0.753721,-2.8125 c 0.414547,-1.546875 0.761402,-4.359375 0.770789,-6.25 L 56.25,7.5 l -1.875,0 -1.875,0 0,-1.875 0,-1.875 -12.5,0 -12.5,0 0,1.875 0,1.875 -1.875,0 -1.875,0 0.01706,3.4375 c 0.0094,1.890625 0.356243,4.703125 0.770789,6.25 L 25.291579,20 l 1.72921,0 1.729211,0 0,-4.375 z m 18.75,-1.875 0,-2.5 -7.5,0 -7.5,0 0,2.5 0,2.5 7.5,0 7.5,0 0,-2.5 z"
       id="path3491"
       inkscape:connector-curvature="0" />
  </g>
</svg>
